<?xml version="1.0" encoding="utf-8"?>
<!-- Generator: Adobe Illustrator 23.0.0, SVG Export Plug-In . SVG Version: 6.00 Build 0)  -->
<svg version="1.1" xmlns="http://www.w3.org/2000/svg" xmlns:xlink="http://www.w3.org/1999/xlink" x="0px" y="0px"
	 viewBox="0 0 100 104.2" style="enable-background:new 0 0 100 104.2;" xml:space="preserve">
<style type="text/css">
	.st0{enable-background:new    ;}
</style>
<g id="Layer_2">
</g>
<g id="Layer_1">
	<g>
		<path d="M5273.1,2400.1v-2c0-2.8-5-4-9.7-4s-9.7,1.3-9.7,4v2c0,1.8,0.7,3.6,2,4.9l5,4.9c0.3,0.3,0.4,0.6,0.4,1v6.4
			c0,0.4,0.2,0.7,0.6,0.8l2.9,0.9c0.5,0.1,1-0.2,1-0.8v-7.2c0-0.4,0.2-0.7,0.4-1l5.1-5C5272.4,2403.7,5273.1,2401.9,5273.1,2400.1z
			 M5263.4,2400c-4.8,0-7.4-1.3-7.5-1.8l0,0c0.1-0.5,2.7-1.8,7.5-1.8s7.3,1.3,7.5,1.8C5270.7,2398.7,5268.2,2400,5263.4,2400z"/>
		<path d="M5268.4,2410.3c-0.6,0-1,0.4-1,1s0.4,1,1,1h4.3c0.6,0,1-0.4,1-1s-0.4-1-1-1H5268.4z"/>
		<path d="M5272.7,2413.7h-4.3c-0.6,0-1,0.4-1,1s0.4,1,1,1h4.3c0.6,0,1-0.4,1-1C5273.7,2414.1,5273.3,2413.7,5272.7,2413.7z"/>
		<path d="M5272.7,2417h-4.3c-0.6,0-1,0.4-1,1s0.4,1,1,1h4.3c0.6,0,1-0.4,1-1C5273.7,2417.5,5273.3,2417,5272.7,2417z"/>
	</g>
	<g>
		<path d="M80.4,42.1c-0.4-2.3-2.6-3.9-4.9-3.9h-9L59,29.9c-2.2-2.4-5.3-3.8-8.5-3.8H42c-3.8,0-7.3,1.9-9.5,5L20.4,49
			c-1.1,1.6-1.3,3.8-0.2,5.4c1,1.5,2.5,2.1,4,2.1s3-0.7,3.9-2l6.3-9.2v47.3c0,2.4,1.6,4.5,3.9,4.9c3,0.5,5.5-1.8,5.5-4.6V64.5
			c0-0.5,0.4-0.9,0.9-0.9h2.7c0.5,0,0.9,0.4,0.9,0.9v28.1c0,2.4,1.6,4.5,3.9,4.9c3,0.5,5.5-1.8,5.5-4.6V42.4L61,46
			c0.9,1,2.2,1.6,3.5,1.6h11.3C78.7,47.6,80.9,45,80.4,42.1z"/>
		<circle cx="46" cy="13" r="10.5"/>
		<circle cx="72" cy="29.6" r="3.5"/>
		<path d="M71.8,23.3c1.4,0.1,2.7-0.9,2.8-2.4l1.3-14.2c0-0.2,0-0.5,0-0.7c-0.2-2.1-2.1-3.7-4.2-3.5S68,4.6,68.2,6.7L69.4,21
			C69.5,22.2,70.5,23.2,71.8,23.3z"/>
	</g>
	<g class="st0">
		<path d="M2.7,112.6c-0.1-0.2-0.2-0.6-0.8-0.6c-0.4,0-0.9,0.2-0.9,1.3c0,0.6,0.3,1.2,0.9,1.2c0.4,0,0.7-0.2,0.8-0.7h0.8
			c-0.1,0.8-0.7,1.3-1.6,1.3c-1,0-1.6-0.6-1.6-1.9c0-1.3,0.7-1.9,1.7-1.9c1.1,0,1.5,0.7,1.6,1.3H2.7z"/>
		<path d="M3.9,112.3h0.7v0.5h0c0.1-0.3,0.3-0.5,0.7-0.5c0,0,0.1,0,0.1,0v0.7c-0.1,0-0.1,0-0.2,0c-0.5,0-0.6,0.3-0.6,0.6v1.4H3.9
			V112.3z"/>
		<path d="M8.2,114.2c-0.2,0.6-0.7,0.9-1.2,0.9c-0.8,0-1.3-0.4-1.3-1.5c0-0.3,0.1-1.3,1.3-1.3c0.5,0,1.3,0.3,1.3,1.5v0.1H6.4
			c0,0.2,0.1,0.7,0.6,0.7c0.2,0,0.4-0.1,0.5-0.3H8.2z M7.5,113.4c0-0.4-0.3-0.6-0.5-0.6c-0.3,0-0.5,0.2-0.5,0.6H7.5z"/>
		<path d="M10.8,114.5c0,0.3,0.1,0.4,0.2,0.4v0.1h-0.8c0-0.1,0-0.2-0.1-0.3c-0.2,0.2-0.4,0.4-0.9,0.4c-0.4,0-0.8-0.2-0.8-0.8
			c0-0.5,0.3-0.8,0.8-0.9l0.6-0.1c0.1,0,0.2-0.1,0.2-0.2c0-0.3-0.3-0.3-0.5-0.3c-0.4,0-0.4,0.2-0.4,0.4H8.6c0.1-0.8,0.6-0.9,1.2-0.9
			c0.4,0,1.1,0.1,1.1,0.8V114.5z M10.1,113.7c-0.1,0.1-0.2,0.1-0.5,0.1c-0.3,0-0.5,0.1-0.5,0.4c0,0.2,0.2,0.3,0.3,0.3
			c0.3,0,0.6-0.2,0.6-0.5V113.7z"/>
		<path d="M12.2,112.3h0.4v0.5h-0.4v1.4c0,0.2,0,0.2,0.3,0.2c0,0,0.1,0,0.1,0v0.5c-0.1,0-0.2,0-0.3,0h-0.1c-0.6,0-0.7-0.2-0.7-0.6
			v-1.6h-0.4v-0.5h0.4v-0.7h0.7V112.3z"/>
		<path d="M15.4,114.2c-0.2,0.6-0.7,0.9-1.2,0.9c-0.8,0-1.3-0.4-1.3-1.5c0-0.3,0.1-1.3,1.3-1.3c0.5,0,1.3,0.3,1.3,1.5v0.1h-1.8
			c0,0.2,0.1,0.7,0.6,0.7c0.2,0,0.4-0.1,0.5-0.3H15.4z M14.7,113.4c0-0.4-0.3-0.6-0.5-0.6c-0.3,0-0.5,0.2-0.5,0.6H14.7z"/>
		<path d="M18.3,115h-0.7v-0.3h0c-0.2,0.3-0.5,0.4-0.8,0.4c-0.8,0-1.1-0.7-1.1-1.4c0-0.9,0.5-1.4,1.1-1.4c0.5,0,0.7,0.2,0.8,0.4h0
			v-1.3h0.7V115z M17,114.5c0.4,0,0.6-0.4,0.6-0.8c0-0.4-0.1-0.9-0.6-0.9c-0.4,0-0.6,0.4-0.6,0.8C16.5,114,16.6,114.5,17,114.5z"/>
		<path d="M21,112.7L21,112.7c0.1-0.2,0.3-0.4,0.8-0.4c0.6,0,1.1,0.5,1.1,1.4c0,0.7-0.3,1.4-1.1,1.4c-0.3,0-0.6-0.1-0.8-0.4h0v0.3
			h-0.7v-3.6H21V112.7z M21.6,112.9c-0.5,0-0.6,0.4-0.6,0.9c0,0.4,0.2,0.8,0.6,0.8c0.5,0,0.6-0.5,0.6-0.8
			C22.2,113.3,22,112.9,21.6,112.9z"/>
		<path d="M24.8,115c-0.3,1-0.4,1.1-1,1.1c-0.1,0-0.2,0-0.3,0v-0.6c0,0,0.1,0,0.1,0c0.3,0,0.4,0,0.5-0.4l-1-2.8h0.8l0.6,2h0l0.5-2
			h0.7L24.8,115z"/>
		<path d="M28.1,115h-0.8l1.3-3.6h0.9l1.3,3.6h-0.8l-0.2-0.7h-1.3L28.1,115z M28.6,113.6h0.9l-0.4-1.4h0L28.6,113.6z"/>
		<path d="M33.6,115h-0.7v-0.3h0c-0.2,0.3-0.5,0.4-0.8,0.4c-0.8,0-1.1-0.7-1.1-1.4c0-0.9,0.5-1.4,1.1-1.4c0.5,0,0.7,0.2,0.8,0.4h0
			v-1.3h0.7V115z M32.3,114.5c0.4,0,0.6-0.4,0.6-0.8c0-0.4-0.1-0.9-0.6-0.9c-0.4,0-0.6,0.4-0.6,0.8C31.7,114,31.9,114.5,32.3,114.5z
			"/>
		<path d="M34.2,112.3h0.7v0.5h0c0.1-0.3,0.3-0.5,0.7-0.5c0,0,0.1,0,0.1,0v0.7c-0.1,0-0.1,0-0.2,0c-0.5,0-0.6,0.3-0.6,0.6v1.4h-0.7
			V112.3z"/>
		<path d="M36.9,112h-0.7v-0.7h0.7V112z M36.9,112.3v2.7h-0.7v-2.7H36.9z"/>
		<path d="M39.8,114.2c-0.2,0.6-0.7,0.9-1.2,0.9c-0.8,0-1.3-0.4-1.3-1.5c0-0.3,0.1-1.3,1.3-1.3c0.5,0,1.3,0.3,1.3,1.5v0.1H38
			c0,0.2,0.1,0.7,0.6,0.7c0.2,0,0.4-0.1,0.5-0.3H39.8z M39.2,113.4c0-0.4-0.3-0.6-0.5-0.6c-0.3,0-0.5,0.2-0.5,0.6H39.2z"/>
		<path d="M42.7,115H42v-1.6c0-0.2,0-0.5-0.5-0.5c-0.3,0-0.6,0.2-0.6,0.6v1.5h-0.7v-2.7H41v0.4h0c0.1-0.2,0.3-0.5,0.8-0.5
			c0.5,0,0.9,0.3,0.9,0.9V115z"/>
		<path d="M47.1,112.6c-0.1-0.2-0.2-0.6-0.8-0.6c-0.4,0-0.9,0.2-0.9,1.3c0,0.6,0.3,1.2,0.9,1.2c0.4,0,0.7-0.2,0.8-0.7h0.8
			c-0.2,0.8-0.7,1.3-1.6,1.3c-1,0-1.6-0.6-1.6-1.9c0-1.3,0.7-1.9,1.7-1.9c1.1,0,1.5,0.7,1.6,1.3H47.1z"/>
		<path d="M49.6,115.1c-0.7,0-1.4-0.4-1.4-1.4s0.6-1.4,1.4-1.4c0.7,0,1.4,0.4,1.4,1.4S50.3,115.1,49.6,115.1z M49.6,112.9
			c-0.5,0-0.6,0.5-0.6,0.8c0,0.3,0.1,0.8,0.6,0.8c0.5,0,0.6-0.5,0.6-0.8C50.2,113.3,50.1,112.9,49.6,112.9z"/>
		<path d="M53.9,112.3v3.7h-0.7v-1.4h0c-0.1,0.3-0.4,0.4-0.8,0.4c-0.8,0-1.1-0.8-1.1-1.3c0-0.7,0.3-1.5,1.2-1.5
			c0.5,0,0.6,0.3,0.7,0.5h0v-0.4H53.9z M52.6,114.5c0.3,0,0.6-0.3,0.6-0.8c0-0.7-0.5-0.8-0.6-0.8c-0.3,0-0.6,0.2-0.6,0.8
			C52,114.2,52.2,114.5,52.6,114.5z"/>
		<path d="M56.9,115h-0.7v-0.4h0c-0.2,0.3-0.4,0.4-0.8,0.4c-0.5,0-0.9-0.3-0.9-1v-1.8h0.7v1.7c0,0.4,0.2,0.5,0.5,0.5
			c0.2,0,0.5-0.1,0.5-0.6v-1.5h0.7V115z"/>
		<path d="M59.8,114.2c-0.2,0.6-0.7,0.9-1.2,0.9c-0.8,0-1.3-0.4-1.3-1.5c0-0.3,0.1-1.3,1.3-1.3c0.5,0,1.3,0.3,1.3,1.5v0.1H58
			c0,0.2,0.1,0.7,0.6,0.7c0.2,0,0.4-0.1,0.5-0.3H59.8z M59.2,113.4c0-0.4-0.3-0.6-0.5-0.6c-0.3,0-0.5,0.2-0.5,0.6H59.2z"/>
		<path d="M61.1,112.3h0.4v0.5h-0.4v1.4c0,0.2,0,0.2,0.3,0.2c0,0,0.1,0,0.1,0v0.5c-0.1,0-0.2,0-0.3,0h-0.1c-0.6,0-0.7-0.2-0.7-0.6
			v-1.6h-0.4v-0.5h0.4v-0.7h0.7V112.3z"/>
	</g>
	<g class="st0">
		<path d="M1.1,120H0.4v-2.2H0v-0.5h0.4v-0.2c0-0.6,0.3-0.8,0.8-0.8c0.2,0,0.3,0,0.4,0v0.6H1.4c-0.2,0-0.2,0.1-0.2,0.3v0.1h0.5v0.5
			H1.1V120z"/>
		<path d="M2,117.3h0.7v0.5h0c0.1-0.3,0.3-0.5,0.7-0.5c0,0,0.1,0,0.1,0v0.7c-0.1,0-0.1,0-0.2,0c-0.5,0-0.6,0.3-0.6,0.6v1.4H2V117.3z
			"/>
		<path d="M5.1,120.1c-0.7,0-1.4-0.4-1.4-1.4s0.6-1.4,1.4-1.4c0.7,0,1.4,0.4,1.4,1.4S5.9,120.1,5.1,120.1z M5.1,117.9
			c-0.5,0-0.6,0.5-0.6,0.8c0,0.3,0.1,0.8,0.6,0.8c0.5,0,0.6-0.5,0.6-0.8C5.8,118.3,5.7,117.9,5.1,117.9z"/>
		<path d="M10.8,120h-0.7v-1.6c0-0.4-0.2-0.5-0.4-0.5c-0.4,0-0.5,0.2-0.5,0.5v1.6H8.5v-1.6c0-0.2,0-0.5-0.4-0.5
			c-0.3,0-0.4,0.2-0.4,0.5v1.6H7v-2.7h0.7v0.4h0c0.1-0.2,0.3-0.5,0.8-0.5c0.4,0,0.6,0.1,0.7,0.4c0.1-0.1,0.3-0.4,0.7-0.4
			c0.5,0,0.9,0.3,0.9,0.9V120z"/>
		<path d="M13.6,117.3H14v0.5h-0.4v1.4c0,0.2,0,0.2,0.3,0.2c0,0,0.1,0,0.1,0v0.5c-0.1,0-0.2,0-0.3,0h-0.1c-0.6,0-0.7-0.2-0.7-0.6
			v-1.6h-0.4v-0.5h0.4v-0.7h0.7V117.3z"/>
		<path d="M16.9,120h-0.7v-1.6c0-0.2,0-0.5-0.5-0.5c-0.3,0-0.6,0.2-0.6,0.6v1.5h-0.7v-3.6h0.7v1.3h0c0.1-0.2,0.4-0.4,0.8-0.4
			c0.5,0,0.9,0.3,0.9,0.9V120z"/>
		<path d="M19.8,119.2c-0.2,0.6-0.7,0.9-1.2,0.9c-0.8,0-1.3-0.4-1.3-1.5c0-0.3,0.1-1.3,1.3-1.3c0.5,0,1.3,0.3,1.3,1.5v0.1H18
			c0,0.2,0.1,0.7,0.6,0.7c0.2,0,0.4-0.1,0.5-0.3H19.8z M19.1,118.4c0-0.4-0.3-0.6-0.5-0.6c-0.3,0-0.5,0.2-0.5,0.6H19.1z"/>
		<path d="M24,116.4h0.7v3.6h-0.8l-1.5-2.6h0v2.6h-0.7v-3.6h0.8l1.4,2.5h0V116.4z"/>
		<path d="M26.5,120.1c-0.7,0-1.4-0.4-1.4-1.4s0.6-1.4,1.4-1.4c0.7,0,1.4,0.4,1.4,1.4S27.2,120.1,26.5,120.1z M26.5,117.9
			c-0.5,0-0.6,0.5-0.6,0.8c0,0.3,0.1,0.8,0.6,0.8c0.5,0,0.6-0.5,0.6-0.8C27.2,118.3,27.1,117.9,26.5,117.9z"/>
		<path d="M30.8,120h-0.7v-0.4h0c-0.2,0.3-0.4,0.4-0.8,0.4c-0.5,0-0.9-0.3-0.9-1v-1.8h0.7v1.7c0,0.4,0.2,0.5,0.5,0.5
			c0.2,0,0.5-0.1,0.5-0.6v-1.5h0.7V120z"/>
		<path d="M33.8,120h-0.7v-1.6c0-0.2,0-0.5-0.5-0.5c-0.3,0-0.6,0.2-0.6,0.6v1.5h-0.7v-2.7h0.7v0.4h0c0.1-0.2,0.3-0.5,0.8-0.5
			c0.5,0,0.9,0.3,0.9,0.9V120z"/>
		<path d="M36.7,120h-0.8v-3.6h1.6c0.7,0,1.1,0.4,1.1,1.2c0,0.3-0.2,1.1-1.1,1.1h-0.9V120z M37.4,118.1c0.6,0,0.6-0.4,0.6-0.6
			c0-0.4-0.2-0.5-0.7-0.5h-0.6v1.1H37.4z"/>
		<path d="M39.2,117.3h0.7v0.5h0c0.1-0.3,0.3-0.5,0.7-0.5c0,0,0.1,0,0.1,0v0.7c-0.1,0-0.1,0-0.2,0c-0.5,0-0.6,0.3-0.6,0.6v1.4h-0.7
			V117.3z"/>
		<path d="M42.4,120.1c-0.7,0-1.4-0.4-1.4-1.4s0.6-1.4,1.4-1.4c0.7,0,1.4,0.4,1.4,1.4S43.1,120.1,42.4,120.1z M42.4,117.9
			c-0.5,0-0.6,0.5-0.6,0.8c0,0.3,0.1,0.8,0.6,0.8c0.5,0,0.6-0.5,0.6-0.8C43,118.3,42.9,117.9,42.4,117.9z"/>
		<path d="M44.9,120.3c0,0.7-0.3,0.8-0.9,0.8h-0.2v-0.6H44c0.1,0,0.2,0,0.2-0.2v-2.9h0.7V120.3z M44.9,117h-0.7v-0.7h0.7V117z"/>
		<path d="M47.9,119.2c-0.2,0.6-0.7,0.9-1.2,0.9c-0.8,0-1.3-0.4-1.3-1.5c0-0.3,0.1-1.3,1.3-1.3c0.5,0,1.3,0.3,1.3,1.5v0.1h-1.8
			c0,0.2,0.1,0.7,0.6,0.7c0.2,0,0.4-0.1,0.5-0.3H47.9z M47.2,118.4c0-0.4-0.3-0.6-0.5-0.6c-0.3,0-0.5,0.2-0.5,0.6H47.2z"/>
		<path d="M50.7,119c0,0.3-0.2,1-1.2,1c-1,0-1.2-0.8-1.2-1.3c0-0.9,0.4-1.5,1.3-1.5c0.4,0,1.1,0.2,1.2,1H50c0-0.2-0.1-0.5-0.5-0.4
			c-0.4,0-0.6,0.4-0.6,0.8c0,0.3,0,0.9,0.5,0.9c0.4,0,0.5-0.3,0.5-0.5H50.7z"/>
		<path d="M52,117.3h0.4v0.5H52v1.4c0,0.2,0,0.2,0.3,0.2c0,0,0.1,0,0.1,0v0.5c-0.1,0-0.2,0-0.3,0H52c-0.6,0-0.7-0.2-0.7-0.6v-1.6
			h-0.4v-0.5h0.4v-0.7H52V117.3z"/>
	</g>
</g>
</svg>
