<?xml version="1.0" encoding="utf-8"?>
<!-- Generator: Adobe Illustrator 23.0.0, SVG Export Plug-In . SVG Version: 6.00 Build 0)  -->
<svg version="1.1" id="Layer_1" xmlns="http://www.w3.org/2000/svg" xmlns:xlink="http://www.w3.org/1999/xlink" x="0px" y="0px"
	 viewBox="0 0 52 52.9" style="enable-background:new 0 0 52 52.9;" xml:space="preserve">
<style type="text/css">
	.st0{enable-background:new    ;}
</style>
<g>
	<path d="M24.9,39.2H6.7c-3.1,0-5.6,2.5-5.6,5.6v3.1c0,0.6,0.4,1,1,1h27.5c0.5,0,1-0.4,1-1v-3.1C30.5,41.7,28,39.2,24.9,39.2z"/>
	<path d="M39.1,25.2c-2.1-2.1-4.2-4-6.2-5.7l1.5-1.5l1.2,1.2c0.3,0.3,0.8,0.5,1.3,0.5c0.5,0,1-0.2,1.3-0.5l1.7-1.7
		c0.7-0.7,0.7-1.9,0-2.6L28.6,3.6c-0.4-0.3-0.8-0.5-1.3-0.5s-1,0.2-1.3,0.5l-1.7,1.7c-0.3,0.4-0.5,0.8-0.5,1.3s0.2,1,0.5,1.3
		l1.2,1.2l-8.2,8.2l-1.1-1.1c-0.7-0.7-2-0.7-2.8,0l-1.5,1.5c-0.8,0.8-0.8,2,0,2.8L23,31.6c0.4,0.4,0.9,0.6,1.4,0.6
		c0.5,0,1-0.2,1.4-0.6l1.5-1.5c0.8-0.8,0.8-2,0-2.8l-1.1-1.1l1.5-1.5c1.7,2,3.6,4.1,5.7,6.2c2.1,2.1,12.1,11.9,16.1,11.9
		c0.5,0,0.8-0.1,1.1-0.4C53.3,39.7,41.5,27.6,39.1,25.2z"/>
</g>
<g class="st0">
	<path d="M2.7,64.6C2.6,64.4,2.5,64,1.9,64C1.5,64,1,64.2,1,65.2c0,0.6,0.3,1.2,0.9,1.2c0.4,0,0.7-0.2,0.8-0.7h0.8
		c-0.1,0.8-0.7,1.3-1.6,1.3c-1,0-1.6-0.6-1.6-1.9c0-1.3,0.7-1.9,1.7-1.9c1.1,0,1.5,0.7,1.6,1.3H2.7z"/>
	<path d="M3.9,64.3h0.7v0.5h0c0.1-0.3,0.3-0.5,0.7-0.5c0,0,0.1,0,0.1,0V65c-0.1,0-0.1,0-0.2,0c-0.5,0-0.6,0.3-0.6,0.6V67H3.9V64.3z"
		/>
	<path d="M8.2,66.2C8,66.9,7.5,67.1,7,67.1c-0.8,0-1.3-0.4-1.3-1.5c0-0.3,0.1-1.3,1.3-1.3c0.5,0,1.3,0.3,1.3,1.5v0.1H6.4
		c0,0.2,0.1,0.7,0.6,0.7c0.2,0,0.4-0.1,0.5-0.3H8.2z M7.5,65.4c0-0.4-0.3-0.6-0.5-0.6c-0.3,0-0.5,0.2-0.5,0.6H7.5z"/>
	<path d="M10.8,66.5c0,0.3,0.1,0.4,0.2,0.4V67h-0.8c0-0.1,0-0.2-0.1-0.3c-0.2,0.2-0.4,0.4-0.9,0.4c-0.4,0-0.8-0.2-0.8-0.8
		c0-0.5,0.3-0.8,0.8-0.9l0.6-0.1c0.1,0,0.2-0.1,0.2-0.2c0-0.3-0.3-0.3-0.5-0.3c-0.4,0-0.4,0.2-0.4,0.4H8.6c0.1-0.8,0.6-0.9,1.2-0.9
		c0.4,0,1.1,0.1,1.1,0.8V66.5z M10.1,65.7c-0.1,0.1-0.2,0.1-0.5,0.1c-0.3,0-0.5,0.1-0.5,0.4c0,0.2,0.2,0.3,0.3,0.3
		c0.3,0,0.6-0.2,0.6-0.5V65.7z"/>
	<path d="M12.2,64.3h0.4v0.5h-0.4v1.4c0,0.2,0,0.2,0.3,0.2c0,0,0.1,0,0.1,0V67c-0.1,0-0.2,0-0.3,0h-0.1c-0.6,0-0.7-0.2-0.7-0.6v-1.6
		h-0.4v-0.5h0.4v-0.7h0.7V64.3z"/>
	<path d="M15.4,66.2c-0.2,0.6-0.7,0.9-1.2,0.9c-0.8,0-1.3-0.4-1.3-1.5c0-0.3,0.1-1.3,1.3-1.3c0.5,0,1.3,0.3,1.3,1.5v0.1h-1.8
		c0,0.2,0.1,0.7,0.6,0.7c0.2,0,0.4-0.1,0.5-0.3H15.4z M14.7,65.4c0-0.4-0.3-0.6-0.5-0.6c-0.3,0-0.5,0.2-0.5,0.6H14.7z"/>
	<path d="M18.3,67h-0.7v-0.3h0c-0.2,0.3-0.5,0.4-0.8,0.4c-0.8,0-1.1-0.7-1.1-1.4c0-0.9,0.5-1.4,1.1-1.4c0.5,0,0.7,0.2,0.8,0.4h0
		v-1.3h0.7V67z M17,66.5c0.4,0,0.6-0.4,0.6-0.8c0-0.4-0.1-0.9-0.6-0.9c-0.4,0-0.6,0.4-0.6,0.8C16.5,66,16.6,66.5,17,66.5z"/>
	<path d="M21,64.7L21,64.7c0.1-0.2,0.3-0.4,0.8-0.4c0.6,0,1.1,0.5,1.1,1.4c0,0.7-0.3,1.4-1.1,1.4c-0.3,0-0.6-0.1-0.8-0.4h0V67h-0.7
		v-3.6H21V64.7z M21.6,64.9c-0.5,0-0.6,0.4-0.6,0.9c0,0.4,0.2,0.8,0.6,0.8c0.5,0,0.6-0.5,0.6-0.8C22.2,65.3,22,64.9,21.6,64.9z"/>
	<path d="M24.8,67c-0.3,1-0.4,1.1-1,1.1c-0.1,0-0.2,0-0.3,0v-0.6c0,0,0.1,0,0.1,0c0.3,0,0.4,0,0.5-0.4l-1-2.8h0.8l0.6,2h0l0.5-2h0.7
		L24.8,67z"/>
	<path d="M29.3,65.1h1.5V67h-0.5l-0.1-0.5c-0.2,0.2-0.5,0.5-1.1,0.5c-0.9,0-1.7-0.6-1.7-1.9c0-1,0.5-1.9,1.8-1.9
		c1.1,0,1.5,0.7,1.6,1.2H30c0-0.1-0.3-0.6-0.8-0.6c-0.5,0-1,0.4-1,1.3c0,1,0.5,1.2,1,1.2c0.2,0,0.7-0.1,0.9-0.8h-0.8V65.1z"/>
	<path d="M31.4,64.3h0.7v0.5h0c0.1-0.3,0.3-0.5,0.7-0.5c0,0,0.1,0,0.1,0V65c-0.1,0-0.1,0-0.2,0c-0.5,0-0.6,0.3-0.6,0.6V67h-0.7V64.3
		z"/>
	<path d="M35.5,66.5c0,0.3,0.1,0.4,0.2,0.4V67h-0.8c0-0.1-0.1-0.2-0.1-0.3c-0.2,0.2-0.4,0.4-0.9,0.4c-0.4,0-0.8-0.2-0.8-0.8
		c0-0.5,0.3-0.8,0.8-0.9l0.6-0.1c0.1,0,0.2-0.1,0.2-0.2c0-0.3-0.3-0.3-0.5-0.3c-0.4,0-0.4,0.2-0.4,0.4h-0.7c0.1-0.8,0.6-0.9,1.2-0.9
		c0.4,0,1.1,0.1,1.1,0.8V66.5z M34.9,65.7c-0.1,0.1-0.2,0.1-0.5,0.1c-0.3,0-0.5,0.1-0.5,0.4c0,0.2,0.2,0.3,0.3,0.3
		c0.3,0,0.6-0.2,0.6-0.5V65.7z"/>
	<path d="M36.8,64.7L36.8,64.7c0.1-0.2,0.3-0.5,0.8-0.5c0.6,0,1.1,0.5,1.1,1.4c0,0.7-0.3,1.4-1.1,1.4c-0.5,0-0.7-0.3-0.8-0.4h0V68
		h-0.7v-3.7h0.7V64.7z M37.4,66.5c0.5,0,0.6-0.5,0.6-0.8c0-0.4-0.1-0.8-0.6-0.8c-0.5,0-0.6,0.4-0.6,0.9C36.8,66.1,37,66.5,37.4,66.5
		z"/>
	<path d="M41.6,67h-0.7v-1.6c0-0.2,0-0.5-0.5-0.5c-0.3,0-0.6,0.2-0.6,0.6V67h-0.7v-3.6h0.7v1.3h0c0.1-0.2,0.4-0.4,0.8-0.4
		c0.5,0,0.9,0.3,0.9,0.9V67z"/>
	<path d="M43,64h-0.7v-0.7H43V64z M43,64.3V67h-0.7v-2.7H43z"/>
	<path d="M46,66c0,0.3-0.2,1-1.2,1c-1,0-1.2-0.8-1.2-1.3c0-0.9,0.4-1.5,1.3-1.5c0.4,0,1.1,0.2,1.2,1h-0.7c0-0.2-0.1-0.5-0.5-0.4
		c-0.4,0-0.6,0.4-0.6,0.8c0,0.3,0,0.9,0.5,0.9c0.4,0,0.5-0.3,0.5-0.5H46z"/>
	<path d="M49.4,67h-0.8v-3h-1.1v-0.6h2.9V64h-1.1V67z"/>
	<path d="M51.6,64h-0.7v-0.7h0.7V64z M51.6,64.3V67h-0.7v-2.7H51.6z"/>
	<path d="M54.7,64.3v2.5c0,0.5,0,1.2-1.3,1.2c-0.6,0-1.1-0.2-1.2-0.8H53c0,0.1,0.1,0.3,0.5,0.3c0.4,0,0.6-0.2,0.6-0.6v-0.3l0,0
		c-0.1,0.2-0.3,0.4-0.7,0.4c-0.6,0-1.1-0.4-1.1-1.4c0-0.9,0.5-1.4,1.1-1.4c0.5,0,0.7,0.3,0.8,0.5h0v-0.4H54.7z M53.4,66.4
		c0.5,0,0.6-0.4,0.6-0.8c0-0.4-0.2-0.8-0.6-0.8c-0.3,0-0.5,0.2-0.5,0.8C52.9,66,53,66.4,53.4,66.4z"/>
	<path d="M57.6,66.2c-0.2,0.6-0.7,0.9-1.2,0.9c-0.8,0-1.3-0.4-1.3-1.5c0-0.3,0.1-1.3,1.3-1.3c0.5,0,1.3,0.3,1.3,1.5v0.1h-1.8
		c0,0.2,0.1,0.7,0.6,0.7c0.2,0,0.4-0.1,0.5-0.3H57.6z M56.9,65.4c0-0.4-0.3-0.6-0.5-0.6c-0.3,0-0.5,0.2-0.5,0.6H56.9z"/>
	<path d="M58.1,64.3h0.7v0.5h0c0.1-0.3,0.3-0.5,0.7-0.5c0,0,0.1,0,0.1,0V65c-0.1,0-0.1,0-0.2,0c-0.5,0-0.6,0.3-0.6,0.6V67h-0.7V64.3
		z"/>
	<path d="M61.6,65.1c0-0.2-0.1-0.4-0.5-0.4c-0.4,0-0.4,0.1-0.4,0.3c0,0.4,1.7,0.1,1.7,1.1c0,0.8-0.8,0.9-1.2,0.9
		c-0.6,0-1.3-0.2-1.3-0.9h0.7c0,0.2,0.1,0.4,0.6,0.4c0.4,0,0.4-0.2,0.4-0.3c0-0.4-1.7-0.1-1.7-1.1c0-0.4,0.2-0.9,1.1-0.9
		c0.5,0,1.1,0.1,1.2,0.9H61.6z"/>
</g>
<g class="st0">
	<path d="M1.1,72H0.4v-2.2H0v-0.5h0.4v-0.2c0-0.6,0.3-0.8,0.8-0.8c0.2,0,0.3,0,0.4,0v0.6H1.4c-0.2,0-0.2,0.1-0.2,0.3v0.1h0.5v0.5
		H1.1V72z"/>
	<path d="M2,69.3h0.7v0.5h0c0.1-0.3,0.3-0.5,0.7-0.5c0,0,0.1,0,0.1,0V70c-0.1,0-0.1,0-0.2,0c-0.5,0-0.6,0.3-0.6,0.6V72H2V69.3z"/>
	<path d="M5.1,72.1c-0.7,0-1.4-0.4-1.4-1.4s0.6-1.4,1.4-1.4c0.7,0,1.4,0.4,1.4,1.4S5.9,72.1,5.1,72.1z M5.1,69.9
		c-0.5,0-0.6,0.5-0.6,0.8c0,0.3,0.1,0.8,0.6,0.8c0.5,0,0.6-0.5,0.6-0.8C5.8,70.3,5.7,69.9,5.1,69.9z"/>
	<path d="M10.8,72h-0.7v-1.6c0-0.4-0.2-0.5-0.4-0.5c-0.4,0-0.5,0.2-0.5,0.5V72H8.5v-1.6c0-0.2,0-0.5-0.4-0.5c-0.3,0-0.4,0.2-0.4,0.5
		V72H7v-2.7h0.7v0.4h0c0.1-0.2,0.3-0.5,0.8-0.5c0.4,0,0.6,0.1,0.7,0.4c0.1-0.1,0.3-0.4,0.7-0.4c0.5,0,0.9,0.3,0.9,0.9V72z"/>
	<path d="M13.6,69.3H14v0.5h-0.4v1.4c0,0.2,0,0.2,0.3,0.2c0,0,0.1,0,0.1,0V72c-0.1,0-0.2,0-0.3,0h-0.1c-0.6,0-0.7-0.2-0.7-0.6v-1.6
		h-0.4v-0.5h0.4v-0.7h0.7V69.3z"/>
	<path d="M16.9,72h-0.7v-1.6c0-0.2,0-0.5-0.5-0.5c-0.3,0-0.6,0.2-0.6,0.6V72h-0.7v-3.6h0.7v1.3h0c0.1-0.2,0.4-0.4,0.8-0.4
		c0.5,0,0.9,0.3,0.9,0.9V72z"/>
	<path d="M19.8,71.2c-0.2,0.6-0.7,0.9-1.2,0.9c-0.8,0-1.3-0.4-1.3-1.5c0-0.3,0.1-1.3,1.3-1.3c0.5,0,1.3,0.3,1.3,1.5v0.1H18
		c0,0.2,0.1,0.7,0.6,0.7c0.2,0,0.4-0.1,0.5-0.3H19.8z M19.1,70.4c0-0.4-0.3-0.6-0.5-0.6c-0.3,0-0.5,0.2-0.5,0.6H19.1z"/>
	<path d="M24,68.4h0.7V72h-0.8l-1.5-2.6h0V72h-0.7v-3.6h0.8l1.4,2.5h0V68.4z"/>
	<path d="M26.5,72.1c-0.7,0-1.4-0.4-1.4-1.4s0.6-1.4,1.4-1.4c0.7,0,1.4,0.4,1.4,1.4S27.2,72.1,26.5,72.1z M26.5,69.9
		c-0.5,0-0.6,0.5-0.6,0.8c0,0.3,0.1,0.8,0.6,0.8c0.5,0,0.6-0.5,0.6-0.8C27.2,70.3,27.1,69.9,26.5,69.9z"/>
	<path d="M30.8,72h-0.7v-0.4h0c-0.2,0.3-0.4,0.4-0.8,0.4c-0.5,0-0.9-0.3-0.9-1v-1.8h0.7V71c0,0.4,0.2,0.5,0.5,0.5
		c0.2,0,0.5-0.1,0.5-0.6v-1.5h0.7V72z"/>
	<path d="M33.8,72h-0.7v-1.6c0-0.2,0-0.5-0.5-0.5c-0.3,0-0.6,0.2-0.6,0.6V72h-0.7v-2.7h0.7v0.4h0c0.1-0.2,0.3-0.5,0.8-0.5
		c0.5,0,0.9,0.3,0.9,0.9V72z"/>
	<path d="M36.7,72h-0.8v-3.6h1.6c0.7,0,1.1,0.4,1.1,1.2c0,0.3-0.2,1.1-1.1,1.1h-0.9V72z M37.4,70.1c0.6,0,0.6-0.4,0.6-0.6
		c0-0.4-0.2-0.5-0.7-0.5h-0.6v1.1H37.4z"/>
	<path d="M39.2,69.3h0.7v0.5h0c0.1-0.3,0.3-0.5,0.7-0.5c0,0,0.1,0,0.1,0V70c-0.1,0-0.1,0-0.2,0c-0.5,0-0.6,0.3-0.6,0.6V72h-0.7V69.3
		z"/>
	<path d="M42.4,72.1c-0.7,0-1.4-0.4-1.4-1.4s0.6-1.4,1.4-1.4s1.4,0.4,1.4,1.4S43.1,72.1,42.4,72.1z M42.4,69.9
		c-0.5,0-0.6,0.5-0.6,0.8c0,0.3,0.1,0.8,0.6,0.8c0.5,0,0.6-0.5,0.6-0.8C43,70.3,42.9,69.9,42.4,69.9z"/>
	<path d="M44.9,72.3c0,0.7-0.3,0.8-0.9,0.8h-0.2v-0.6H44c0.1,0,0.2,0,0.2-0.2v-2.9h0.7V72.3z M44.9,69h-0.7v-0.7h0.7V69z"/>
	<path d="M47.9,71.2c-0.2,0.6-0.7,0.9-1.2,0.9c-0.8,0-1.3-0.4-1.3-1.5c0-0.3,0.1-1.3,1.3-1.3c0.5,0,1.3,0.3,1.3,1.5v0.1h-1.8
		c0,0.2,0.1,0.7,0.6,0.7c0.2,0,0.4-0.1,0.5-0.3H47.9z M47.2,70.4c0-0.4-0.3-0.6-0.5-0.6c-0.3,0-0.5,0.2-0.5,0.6H47.2z"/>
	<path d="M50.7,71c0,0.3-0.2,1-1.2,1c-1,0-1.2-0.8-1.2-1.3c0-0.9,0.4-1.5,1.3-1.5c0.4,0,1.1,0.2,1.2,1H50c0-0.2-0.1-0.5-0.5-0.4
		c-0.4,0-0.6,0.4-0.6,0.8c0,0.3,0,0.9,0.5,0.9c0.4,0,0.5-0.3,0.5-0.5H50.7z"/>
	<path d="M52,69.3h0.4v0.5H52v1.4c0,0.2,0,0.2,0.3,0.2c0,0,0.1,0,0.1,0V72c-0.1,0-0.2,0-0.3,0H52c-0.6,0-0.7-0.2-0.7-0.6v-1.6h-0.4
		v-0.5h0.4v-0.7H52V69.3z"/>
</g>
</svg>
