<?xml version="1.0" encoding="utf-8"?>
<!-- Generator: Adobe Illustrator 23.0.0, SVG Export Plug-In . SVG Version: 6.00 Build 0)  -->
<svg version="1.1" id="Layer_1" xmlns="http://www.w3.org/2000/svg" xmlns:xlink="http://www.w3.org/1999/xlink" x="0px" y="0px"
	 viewBox="0 0 32 32" style="enable-background:new 0 0 32 32;" xml:space="preserve">
<style type="text/css">
	.st0{enable-background:new    ;}
</style>
<title>read mobile app ui platform</title>
<g>
	<path d="M10.2,14.4l-1.8,1.3l1.8,1.3c3.5,2.4,8.2,2.4,11.7,0l1.9-1.3l-1.9-1.3C18.3,12,13.7,12,10.2,14.4z M16,17.7
		c-1.1,0-2.1-0.9-2.1-2.1s0.9-2.1,2.1-2.1c1.1,0,2.1,0.9,2.1,2.1c0,0,0,0,0,0.1C18,16.8,17.1,17.7,16,17.7z"/>
	<path d="M16,15c-0.4,0-0.7,0.3-0.7,0.7s0.3,0.7,0.7,0.7c0.4,0,0.7-0.3,0.7-0.7c0,0,0,0,0,0C16.7,15.3,16.4,15,16,15
		C16,15,16,15,16,15z"/>
	<path d="M16,3C8.8,3,3,8.8,3,16s5.8,13,13,13s13-5.8,13-13S23.2,3,16,3z M6.8,11.5c5.8-3.3,12.9-3.1,18.5,0.4
		c0.3,0.2,0.4,0.6,0.2,0.9c-0.1,0.2-0.4,0.3-0.6,0.3c-0.1,0-0.3,0-0.4-0.1c-5.2-3.3-11.8-3.4-17.1-0.4c-0.4,0.1-0.8,0-0.9-0.4
		C6.4,12,6.5,11.7,6.8,11.5z M22.6,18.1c-4,2.7-9.3,2.7-13.2,0l-2.7-1.8c-0.3-0.2-0.4-0.7-0.2-1c0-0.1,0.1-0.1,0.2-0.2l2.7-1.8
		c4-2.7,9.3-2.7,13.2,0l2.7,1.8c0.3,0.2,0.4,0.7,0.2,1c0,0.1-0.1,0.1-0.2,0.2L22.6,18.1z"/>
</g>
<g class="st0">
	<path d="M2.7,44.6C2.6,44.4,2.5,44,1.9,44C1.5,44,1,44.2,1,45.2c0,0.6,0.3,1.2,0.9,1.2c0.4,0,0.7-0.2,0.8-0.7h0.8
		c-0.1,0.8-0.7,1.3-1.6,1.3c-1,0-1.6-0.6-1.6-1.9c0-1.3,0.7-1.9,1.7-1.9c1.1,0,1.5,0.7,1.6,1.3H2.7z"/>
	<path d="M3.9,44.3h0.7v0.5h0c0.1-0.3,0.3-0.5,0.7-0.5c0,0,0.1,0,0.1,0V45c-0.1,0-0.1,0-0.2,0c-0.5,0-0.6,0.3-0.6,0.6V47H3.9V44.3z"
		/>
	<path d="M8.2,46.2C8,46.9,7.5,47.1,7,47.1c-0.8,0-1.3-0.4-1.3-1.5c0-0.3,0.1-1.3,1.3-1.3c0.5,0,1.3,0.3,1.3,1.5v0.1H6.4
		c0,0.2,0.1,0.7,0.6,0.7c0.2,0,0.4-0.1,0.5-0.3H8.2z M7.5,45.4c0-0.4-0.3-0.6-0.5-0.6c-0.3,0-0.5,0.2-0.5,0.6H7.5z"/>
	<path d="M10.8,46.5c0,0.3,0.1,0.4,0.2,0.4V47h-0.8c0-0.1,0-0.2-0.1-0.3c-0.2,0.2-0.4,0.4-0.9,0.4c-0.4,0-0.8-0.2-0.8-0.8
		c0-0.5,0.3-0.8,0.8-0.9l0.6-0.1c0.1,0,0.2-0.1,0.2-0.2c0-0.3-0.3-0.3-0.5-0.3c-0.4,0-0.4,0.2-0.4,0.4H8.6c0.1-0.8,0.6-0.9,1.2-0.9
		c0.4,0,1.1,0.1,1.1,0.8V46.5z M10.1,45.7c-0.1,0.1-0.2,0.1-0.5,0.1c-0.3,0-0.5,0.1-0.5,0.4c0,0.2,0.2,0.3,0.3,0.3
		c0.3,0,0.6-0.2,0.6-0.5V45.7z"/>
	<path d="M12.2,44.3h0.4v0.5h-0.4v1.4c0,0.2,0,0.2,0.3,0.2c0,0,0.1,0,0.1,0V47c-0.1,0-0.2,0-0.3,0h-0.1c-0.6,0-0.7-0.2-0.7-0.6v-1.6
		h-0.4v-0.5h0.4v-0.7h0.7V44.3z"/>
	<path d="M15.4,46.2c-0.2,0.6-0.7,0.9-1.2,0.9c-0.8,0-1.3-0.4-1.3-1.5c0-0.3,0.1-1.3,1.3-1.3c0.5,0,1.3,0.3,1.3,1.5v0.1h-1.8
		c0,0.2,0.1,0.7,0.6,0.7c0.2,0,0.4-0.1,0.5-0.3H15.4z M14.7,45.4c0-0.4-0.3-0.6-0.5-0.6c-0.3,0-0.5,0.2-0.5,0.6H14.7z"/>
	<path d="M18.3,47h-0.7v-0.3h0c-0.2,0.3-0.5,0.4-0.8,0.4c-0.8,0-1.1-0.7-1.1-1.4c0-0.9,0.5-1.4,1.1-1.4c0.5,0,0.7,0.2,0.8,0.4h0
		v-1.3h0.7V47z M17,46.5c0.4,0,0.6-0.4,0.6-0.8c0-0.4-0.1-0.9-0.6-0.9c-0.4,0-0.6,0.4-0.6,0.8C16.5,46,16.6,46.5,17,46.5z"/>
	<path d="M21,44.7L21,44.7c0.1-0.2,0.3-0.4,0.8-0.4c0.6,0,1.1,0.5,1.1,1.4c0,0.7-0.3,1.4-1.1,1.4c-0.3,0-0.6-0.1-0.8-0.4h0V47h-0.7
		v-3.6H21V44.7z M21.6,44.9c-0.5,0-0.6,0.4-0.6,0.9c0,0.4,0.2,0.8,0.6,0.8c0.5,0,0.6-0.5,0.6-0.8C22.2,45.3,22,44.9,21.6,44.9z"/>
	<path d="M24.8,47c-0.3,1-0.4,1.1-1,1.1c-0.1,0-0.2,0-0.3,0v-0.6c0,0,0.1,0,0.1,0c0.3,0,0.4,0,0.5-0.4l-1-2.8h0.8l0.6,2h0l0.5-2h0.7
		L24.8,47z"/>
	<path d="M29.1,47h-0.8v-3h-1.1v-0.6h2.9V44h-1.1V47z"/>
	<path d="M30.6,44.3h0.7v0.5h0c0.1-0.3,0.3-0.5,0.7-0.5c0,0,0.1,0,0.1,0V45c-0.1,0-0.1,0-0.2,0c-0.5,0-0.6,0.3-0.6,0.6V47h-0.7V44.3
		z"/>
	<path d="M33.3,44h-0.7v-0.7h0.7V44z M33.3,44.3V47h-0.7v-2.7H33.3z"/>
	<path d="M34.6,44.7L34.6,44.7c0.1-0.2,0.3-0.5,0.8-0.5c0.6,0,1.1,0.5,1.1,1.4c0,0.7-0.3,1.4-1.1,1.4c-0.5,0-0.7-0.3-0.8-0.4h0V48
		h-0.7v-3.7h0.7V44.7z M35.2,46.5c0.4,0,0.6-0.5,0.6-0.8c0-0.4-0.2-0.8-0.6-0.8c-0.5,0-0.6,0.4-0.6,0.9
		C34.6,46.1,34.8,46.5,35.2,46.5z"/>
	<path d="M37.7,47H37v-3.6h0.7V47z"/>
	<path d="M40.7,46.2c-0.2,0.6-0.7,0.9-1.2,0.9c-0.8,0-1.3-0.4-1.3-1.5c0-0.3,0.1-1.3,1.3-1.3c0.5,0,1.3,0.3,1.3,1.5v0.1h-1.8
		c0,0.2,0.1,0.7,0.6,0.7c0.2,0,0.4-0.1,0.5-0.3H40.7z M40,45.4c0-0.4-0.3-0.6-0.5-0.6c-0.3,0-0.5,0.2-0.5,0.6H40z"/>
	<path d="M41.7,47h-0.8l1.3-3.6h0.9l1.3,3.6h-0.8l-0.2-0.7H42L41.7,47z M42.2,45.6h0.9l-0.4-1.4h0L42.2,45.6z"/>
	<path d="M44.8,44.3h0.7v0.5h0c0.1-0.3,0.3-0.5,0.7-0.5c0,0,0.1,0,0.1,0V45c-0.1,0-0.1,0-0.2,0c-0.5,0-0.6,0.3-0.6,0.6V47h-0.7V44.3
		z"/>
	<path d="M47.5,44.3h0.4v0.5h-0.4v1.4c0,0.2,0,0.2,0.3,0.2c0,0,0.1,0,0.1,0V47c-0.1,0-0.2,0-0.3,0h-0.1c-0.6,0-0.7-0.2-0.7-0.6v-1.6
		h-0.4v-0.5h0.4v-0.7h0.7V44.3z"/>
</g>
<g class="st0">
	<path d="M1.1,52H0.4v-2.2H0v-0.5h0.4v-0.2c0-0.6,0.3-0.8,0.8-0.8c0.2,0,0.3,0,0.4,0v0.6H1.4c-0.2,0-0.2,0.1-0.2,0.3v0.1h0.5v0.5
		H1.1V52z"/>
	<path d="M2,49.3h0.7v0.5h0c0.1-0.3,0.3-0.5,0.7-0.5c0,0,0.1,0,0.1,0V50c-0.1,0-0.1,0-0.2,0c-0.5,0-0.6,0.3-0.6,0.6V52H2V49.3z"/>
	<path d="M5.1,52.1c-0.7,0-1.4-0.4-1.4-1.4s0.6-1.4,1.4-1.4c0.7,0,1.4,0.4,1.4,1.4S5.9,52.1,5.1,52.1z M5.1,49.9
		c-0.5,0-0.6,0.5-0.6,0.8c0,0.3,0.1,0.8,0.6,0.8c0.5,0,0.6-0.5,0.6-0.8C5.8,50.3,5.7,49.9,5.1,49.9z"/>
	<path d="M10.8,52h-0.7v-1.6c0-0.4-0.2-0.5-0.4-0.5c-0.4,0-0.5,0.2-0.5,0.5V52H8.5v-1.6c0-0.2,0-0.5-0.4-0.5c-0.3,0-0.4,0.2-0.4,0.5
		V52H7v-2.7h0.7v0.4h0c0.1-0.2,0.3-0.5,0.8-0.5c0.4,0,0.6,0.1,0.7,0.4c0.1-0.1,0.3-0.4,0.7-0.4c0.5,0,0.9,0.3,0.9,0.9V52z"/>
	<path d="M13.6,49.3H14v0.5h-0.4v1.4c0,0.2,0,0.2,0.3,0.2c0,0,0.1,0,0.1,0V52c-0.1,0-0.2,0-0.3,0h-0.1c-0.6,0-0.7-0.2-0.7-0.6v-1.6
		h-0.4v-0.5h0.4v-0.7h0.7V49.3z"/>
	<path d="M16.9,52h-0.7v-1.6c0-0.2,0-0.5-0.5-0.5c-0.3,0-0.6,0.2-0.6,0.6V52h-0.7v-3.6h0.7v1.3h0c0.1-0.2,0.4-0.4,0.8-0.4
		c0.5,0,0.9,0.3,0.9,0.9V52z"/>
	<path d="M19.8,51.2c-0.2,0.6-0.7,0.9-1.2,0.9c-0.8,0-1.3-0.4-1.3-1.5c0-0.3,0.1-1.3,1.3-1.3c0.5,0,1.3,0.3,1.3,1.5v0.1H18
		c0,0.2,0.1,0.7,0.6,0.7c0.2,0,0.4-0.1,0.5-0.3H19.8z M19.1,50.4c0-0.4-0.3-0.6-0.5-0.6c-0.3,0-0.5,0.2-0.5,0.6H19.1z"/>
	<path d="M24,48.4h0.7V52h-0.8l-1.5-2.6h0V52h-0.7v-3.6h0.8l1.4,2.5h0V48.4z"/>
	<path d="M26.5,52.1c-0.7,0-1.4-0.4-1.4-1.4s0.6-1.4,1.4-1.4c0.7,0,1.4,0.4,1.4,1.4S27.2,52.1,26.5,52.1z M26.5,49.9
		c-0.5,0-0.6,0.5-0.6,0.8c0,0.3,0.1,0.8,0.6,0.8c0.5,0,0.6-0.5,0.6-0.8C27.2,50.3,27.1,49.9,26.5,49.9z"/>
	<path d="M30.8,52h-0.7v-0.4h0c-0.2,0.3-0.4,0.4-0.8,0.4c-0.5,0-0.9-0.3-0.9-1v-1.8h0.7V51c0,0.4,0.2,0.5,0.5,0.5
		c0.2,0,0.5-0.1,0.5-0.6v-1.5h0.7V52z"/>
	<path d="M33.8,52h-0.7v-1.6c0-0.2,0-0.5-0.5-0.5c-0.3,0-0.6,0.2-0.6,0.6V52h-0.7v-2.7h0.7v0.4h0c0.1-0.2,0.3-0.5,0.8-0.5
		c0.5,0,0.9,0.3,0.9,0.9V52z"/>
	<path d="M36.7,52h-0.8v-3.6h1.6c0.7,0,1.1,0.4,1.1,1.2c0,0.3-0.2,1.1-1.1,1.1h-0.9V52z M37.4,50.1c0.6,0,0.6-0.4,0.6-0.6
		c0-0.4-0.2-0.5-0.7-0.5h-0.6v1.1H37.4z"/>
	<path d="M39.2,49.3h0.7v0.5h0c0.1-0.3,0.3-0.5,0.7-0.5c0,0,0.1,0,0.1,0V50c-0.1,0-0.1,0-0.2,0c-0.5,0-0.6,0.3-0.6,0.6V52h-0.7V49.3
		z"/>
	<path d="M42.4,52.1c-0.7,0-1.4-0.4-1.4-1.4s0.6-1.4,1.4-1.4s1.4,0.4,1.4,1.4S43.1,52.1,42.4,52.1z M42.4,49.9
		c-0.5,0-0.6,0.5-0.6,0.8c0,0.3,0.1,0.8,0.6,0.8c0.5,0,0.6-0.5,0.6-0.8C43,50.3,42.9,49.9,42.4,49.9z"/>
	<path d="M44.9,52.3c0,0.7-0.3,0.8-0.9,0.8h-0.2v-0.6H44c0.1,0,0.2,0,0.2-0.2v-2.9h0.7V52.3z M44.9,49h-0.7v-0.7h0.7V49z"/>
	<path d="M47.9,51.2c-0.2,0.6-0.7,0.9-1.2,0.9c-0.8,0-1.3-0.4-1.3-1.5c0-0.3,0.1-1.3,1.3-1.3c0.5,0,1.3,0.3,1.3,1.5v0.1h-1.8
		c0,0.2,0.1,0.7,0.6,0.7c0.2,0,0.4-0.1,0.5-0.3H47.9z M47.2,50.4c0-0.4-0.3-0.6-0.5-0.6c-0.3,0-0.5,0.2-0.5,0.6H47.2z"/>
	<path d="M50.7,51c0,0.3-0.2,1-1.2,1c-1,0-1.2-0.8-1.2-1.3c0-0.9,0.4-1.5,1.3-1.5c0.4,0,1.1,0.2,1.2,1H50c0-0.2-0.1-0.5-0.5-0.4
		c-0.4,0-0.6,0.4-0.6,0.8c0,0.3,0,0.9,0.5,0.9c0.4,0,0.5-0.3,0.5-0.5H50.7z"/>
	<path d="M52,49.3h0.4v0.5H52v1.4c0,0.2,0,0.2,0.3,0.2c0,0,0.1,0,0.1,0V52c-0.1,0-0.2,0-0.3,0H52c-0.6,0-0.7-0.2-0.7-0.6v-1.6h-0.4
		v-0.5h0.4v-0.7H52V49.3z"/>
</g>
</svg>
